<svg xmlns="http://www.w3.org/2000/svg" xmlns:xlink="http://www.w3.org/1999/xlink" version="1.1" x="0px" y="0px" viewBox="0 0 100 125" enable-background="new 0 0 100 100" xml:space="preserve"><g><path d="M8.753,51.457L4.462,39.028l12.3-4.247l4.285,12.432L8.753,51.457z M8.258,40.876l2.343,6.785l6.651-2.295l-2.337-6.788   L8.258,40.876z"/></g><g><path d="M17.515,46.115l-2.81-8.142l30.663-10.586l2.81,8.143L17.515,46.115z M18.5,39.822l0.862,2.498l25.02-8.636l-0.862-2.501   L18.5,39.822z"/></g><g><path d="M47.326,42.203l-6.582-19.05l29.295-10.111l6.575,19.053L47.326,42.203z M44.539,25l4.635,13.408l23.646-8.161l-4.63-13.41   L44.539,25z"/></g><g><rect x="46.271" y="40.305" width="2.983" height="55.928"/></g><g><rect x="35.55" y="36.634" transform="matrix(0.9446 0.3283 -0.3283 0.9446 24.1126 -8.4361)" width="2.987" height="61.133"/></g><g><rect x="29.607" y="66.924" transform="matrix(0.3279 0.9447 -0.9447 0.3279 104.3228 -9.8013)" width="58.886" height="2.987"/></g><g><rect x="68.242" y="81.561" transform="matrix(0.3279 0.9447 -0.9447 0.3279 125.5793 -10.4022)" width="3.717" height="2.986"/></g><g><rect x="46.153" y="58.373" transform="matrix(0.3278 0.9447 -0.9447 0.3278 98.2655 -18.3831)" width="31.797" height="2.986"/></g><g><rect x="34.827" y="72.098" width="26.017" height="2.986"/></g><g><g><path d="M86.373,31.325c-7.054,0-9.274-4.559-9.391-4.809L72.446,13.49l2.822-0.979l4.477,12.886    c0.047,0.064,2.564,4.838,11.979,2.084L84.141,5.667l2.821-0.979l8.575,24.665l-1.411,0.493    C91.055,30.911,88.495,31.325,86.373,31.325z"/></g><g><path d="M78.2,30.048l-4.482-12.886c-0.123-0.493-1.937-8.776,11.344-13.396l1.41-0.489l8.575,24.667l-2.821,0.979L84.647,7.113    c-9.105,3.689-8.108,8.997-8.063,9.233l4.437,12.723L78.2,30.048z"/></g></g><text x="0" y="115" fill="#FFFFFF" font-size="5px" font-weight="bold" font-family="'Helvetica Neue', Helvetica, Arial-Unicode, Arial, Sans-serif">Created by Icons Producer</text><text x="0" y="120" fill="#FFFFFF" font-size="5px" font-weight="bold" font-family="'Helvetica Neue', Helvetica, Arial-Unicode, Arial, Sans-serif">from the Noun Project</text></svg>